<svg id="logosandtypes_com" data-name="logosandtypes com" xmlns="http://www.w3.org/2000/svg" viewBox="0 0 150 150"><defs><style>.cls-1{fill:none;}.cls-2{fill:#5fa624;fill-rule:evenodd;}</style></defs><path class="cls-1" d="M0,0H150V150H0Z" transform="translate(0 0)"/><path class="cls-2" d="M122.09,64a48.2,48.2,0,0,1-86.52,38.2,41.34,41.34,0,0,1-4.29-7.45l43-30.08a9.74,9.74,0,1,0-1.43-16.8,9.82,9.82,0,0,0-4.11,8.88L28.13,85.16a48.15,48.15,0,0,1,86.41-38.29,41.4,41.4,0,0,1,4.3,7.45l-43,30.08a9.75,9.75,0,1,0,1.43,16.81,9.84,9.84,0,0,0,4.11-8.88L122.09,64Zm13.37,21.2a61.33,61.33,0,1,0-71.05,49.75A61.36,61.36,0,0,0,135.46,85.16Z" transform="translate(0 0)"/></svg>